<svg width="64" height="52" viewBox="0 0 64 52" fill="none" xmlns="http://www.w3.org/2000/svg">
<path d="M0 7C0 3.13401 3.13401 0 7 0H57C60.866 0 64 3.13401 64 7V45C64 48.866 60.866 52 57 52H7C3.13401 52 0 48.866 0 45V7Z" fill="white" fill-opacity="0.05"/>
<path d="M29.3333 26H34.6667" stroke="#FE0032" stroke-width="2.66667" stroke-linecap="round" stroke-linejoin="round"/>
<path d="M29.3333 20.6666H34.6667" stroke="#FE0032" stroke-width="2.66667" stroke-linecap="round" stroke-linejoin="round"/>
<path d="M34.6667 38V34C34.6667 33.2928 34.3857 32.6145 33.8856 32.1144C33.3855 31.6143 32.7073 31.3334 32 31.3334C31.2928 31.3334 30.6145 31.6143 30.1144 32.1144C29.6143 32.6145 29.3333 33.2928 29.3333 34V38" stroke="#FE0032" stroke-width="2.66667" stroke-linecap="round" stroke-linejoin="round"/>
<path d="M24 23.3334H21.3333C20.6261 23.3334 19.9478 23.6143 19.4477 24.1144C18.9476 24.6145 18.6667 25.2928 18.6667 26V35.3334C18.6667 36.0406 18.9476 36.7189 19.4477 37.219C19.9478 37.7191 20.6261 38 21.3333 38H42.6667C43.3739 38 44.0522 37.7191 44.5523 37.219C45.0524 36.7189 45.3333 36.0406 45.3333 35.3334V22C45.3333 21.2928 45.0524 20.6145 44.5523 20.1144C44.0522 19.6143 43.3739 19.3334 42.6667 19.3334H40" stroke="#FE0032" stroke-width="2.66667" stroke-linecap="round" stroke-linejoin="round"/>
<path d="M24 38V16.6667C24 15.9594 24.281 15.2811 24.781 14.781C25.2811 14.281 25.9594 14 26.6667 14H37.3333C38.0406 14 38.7189 14.281 39.219 14.781C39.719 15.2811 40 15.9594 40 16.6667V38" stroke="#FE0032" stroke-width="2.66667" stroke-linecap="round" stroke-linejoin="round"/>
</svg>
