<svg width="64" height="52" viewBox="0 0 64 52" fill="none" xmlns="http://www.w3.org/2000/svg">
<path d="M0 7C0 3.13401 3.13401 0 7 0H57C60.866 0 64 3.13401 64 7V45C64 48.866 60.866 52 57 52H7C3.13401 52 0 48.866 0 45V7Z" fill="white" fill-opacity="0.05"/>
<path d="M37.3334 38V35.3333C37.3334 33.9188 36.7714 32.5623 35.7713 31.5621C34.7711 30.5619 33.4145 30 32 30H24C22.5855 30 21.229 30.5619 20.2288 31.5621C19.2286 32.5623 18.6667 33.9188 18.6667 35.3333V38" stroke="#FE0032" stroke-width="2.66667" stroke-linecap="round" stroke-linejoin="round"/>
<path d="M37.3333 14.1705C38.477 14.467 39.4898 15.1349 40.2129 16.0693C40.9359 17.0037 41.3282 18.1517 41.3282 19.3332C41.3282 20.5147 40.9359 21.6627 40.2129 22.5971C39.4898 23.5315 38.477 24.1994 37.3333 24.4959" stroke="#FE0032" stroke-width="2.66667" stroke-linecap="round" stroke-linejoin="round"/>
<path d="M45.3333 37.9999V35.3332C45.3324 34.1515 44.9391 33.0036 44.2151 32.0696C43.4911 31.1357 42.4775 30.4686 41.3333 30.1732" stroke="#FE0032" stroke-width="2.66667" stroke-linecap="round" stroke-linejoin="round"/>
<path d="M28 24.6667C30.9455 24.6667 33.3334 22.2789 33.3334 19.3333C33.3334 16.3878 30.9455 14 28 14C25.0545 14 22.6667 16.3878 22.6667 19.3333C22.6667 22.2789 25.0545 24.6667 28 24.6667Z" stroke="#FE0032" stroke-width="2.66667" stroke-linecap="round" stroke-linejoin="round"/>
</svg>
